<?xml version="1.0" encoding="UTF-8"?>
<svg class="h-16 w-auto" fill="none" version="1.1" viewBox="0 0 512 512" xml:space="preserve" xmlns="http://www.w3.org/2000/svg"><defs><linearGradient id="a" x1="183.67" x2="211.35" y1="-5.499" y2="242.28" gradientTransform="matrix(1.4298 0 0 1.4298 13.744 -20.053)" gradientUnits="userSpaceOnUse"><stop stop-color="#FFDD35" offset="0"/><stop stop-color="#FFD233" offset=".083"/><stop stop-color="#FFA800" offset=".594"/><stop stop-color="#F90" offset=".839"/></linearGradient></defs><g transform="matrix(1.7695 0 0 1.7695 -78.229 -30.613)" stroke-linecap="round" stroke-linejoin="round" stroke-width=".18048"><path d="m189.94 37.47a63.359 63.359 0 0 0-54.871 31.677l-78.804 136.49a64.686 64.686 0 0 0 56.02 97.027h117.27l80.646-120.26-65.39-113.26a63.359 63.359 0 0 0-54.869-31.678z" fill="#1c92b3"/><path transform="matrix(1.5218,0,0,1.5218,-678.84,-36.612)" d="m602.67 63.443c-41.412 50.178-67.495 105-87.747 159.05 2.75 0.553 4.636 0.435 7.44 0.455h96.105c34.254 0 55.664-37.08 38.537-66.746l-49.352-85.479c-1.487-2.532-3.007-5.105-4.983-7.278z" fill="#36de97" style="-inkscape-stroke:none"/><path transform="matrix(1.5218,0,0,1.5218,-678.84,-36.612)" d="m615.34 84.035c-34.785 44.283-58.418 91.614-76.91 138.91h80.037a44.498 44.498 0 0 0 38.537-66.746z" fill="#9eff66" style="-inkscape-stroke:none"/></g><path d="m393.86 7.1181-166.08 8.0035a6.2145 6.2145 0 0 0-5.2094 5.5563v156.02c-0.38045 4.1265 3.3267 7.4603 7.4107 6.6622l29.761-6.6604c4.4521-0.8706 8.3185 3.1356 7.2656 7.531l-11.452 64.947c-1.0971 4.5742 3.1161 8.6529 7.6797 7.4373l24.639-4.8556c4.5671-1.2174 8.7839 2.8737 7.6762 7.4514l-25.835 106.74c-1.6156 6.6764 7.2462 10.638 11.182 4.9971l2.6277-3.7691 147.29-270.15c2.4667-4.5211-1.3537-9.8969-6.4587-9.0882l-48.936 7.7452c-4.6007 0.7255-8.3486-3.6364-6.9117-8.0442l32.279-72.479c1.4386-4.4149-2.3251-8.7839-6.9276-8.0424z" fill="url(#a)"/></svg>
